<svg xmlns="http://www.w3.org/2000/svg" viewBox="0 0 1000 620" width="1000" height="620" role="img" aria-label="vehicle">
  <defs>
    <linearGradient id="bg" x1="0" y1="0" x2="0" y2="1">
      <stop offset="0%" stop-color="#202838"/><stop offset="55%" stop-color="#151b26"/>
      <stop offset="100%" stop-color="#0b0e14"/>
    </linearGradient>
    <linearGradient id="body" x1="0" y1="0" x2="0" y2="1">
      <stop offset="0%" stop-color="#2f3948"/><stop offset="48%" stop-color="#2f3948"/>
      <stop offset="100%" stop-color="#0c1016"/>
    </linearGradient>
    <linearGradient id="roof" x1="0" y1="0" x2="0" y2="1">
      <stop offset="0%" stop-color="#ffffff" stop-opacity="0.16"/>
      <stop offset="100%" stop-color="#ffffff" stop-opacity="0"/>
    </linearGradient>
    <linearGradient id="glass" x1="0" y1="0" x2="0.4" y2="1">
      <stop offset="0%" stop-color="#7f93ad" stop-opacity="0.55"/>
      <stop offset="60%" stop-color="#1b2431" stop-opacity="0.95"/>
    </linearGradient>
    <linearGradient id="rim" x1="0" y1="0" x2="0" y2="1">
      <stop offset="0%" stop-color="#7d8a9b"/><stop offset="100%" stop-color="#39434f"/>
    </linearGradient>
    <linearGradient id="leather" x1="0" y1="0" x2="0" y2="1">
      <stop offset="0%" stop-color="#26303d"/><stop offset="100%" stop-color="#151c26"/>
    </linearGradient>
    <radialGradient id="pool" cx="50%" cy="50%" r="50%">
      <stop offset="0%" stop-color="#e6bf57" stop-opacity="0.14"/>
      <stop offset="100%" stop-color="#e6bf57" stop-opacity="0"/>
    </radialGradient>
  </defs>

  <rect width="1000" height="620" fill="url(#bg)"/>
  <ellipse cx="500" cy="330" rx="430" ry="230" fill="url(#pool)"/>
  <ellipse cx="500" cy="436" rx="400" ry="30" fill="#05070a" opacity="0.55"/>
  
    <path d="M148 400 L196 400 Q214 330 286 322 L470 318 Q556 322 604 400 L700 400
             Q742 402 742 418 L742 424 L148 424 Z" fill="url(#body)"/>
    <path d="M196 400 Q214 330 286 322 L470 318 Q556 322 604 400 Z" fill="url(#roof)" opacity="0.5"/>
    <path d="M244 396 Q258 346 300 340 L392 337 L392 396 Z" fill="url(#glass)"/>
    <path d="M406 337 L462 336 Q520 340 556 396 L406 396 Z" fill="url(#glass)"/>
    <path d="M398 336 L398 398" stroke="#0c1016" stroke-width="4"/>
    <path d="M300 424 L300 402" stroke="#0c1016" stroke-width="3" opacity="0.6"/>
    <path d="M470 424 L470 402" stroke="#0c1016" stroke-width="3" opacity="0.6"/>
    <path d="M160 402 Q400 392 730 402" stroke="#c9d3e0" stroke-width="2" opacity="0.28" fill="none"/>
    <rect x="716" y="384" width="26" height="13" rx="6.5" fill="#fff6d8" opacity="0.95"/>
    <rect x="150" y="384" width="20" height="12" rx="6" fill="#ff5a4a" opacity="0.85"/>
    
  <g>
    <circle cx="292" cy="424" r="52" fill="#0a0d12"/>
    <circle cx="292" cy="424" r="50.44" fill="none" stroke="#1d242f" stroke-width="4.16"/>
    <circle cx="292" cy="424" r="31.2" fill="url(#rim)"/>
    <circle cx="292" cy="424" r="31.2" fill="none" stroke="#5c6878" stroke-width="1.5"/>
    <line x1="300.32" y1="424"
                    x2="320.08" y2="424"
                    stroke="#8b97a8" stroke-width="3.9" stroke-linecap="round"/><line x1="297.8831284194721" y1="429.8831284194721"
                    x2="311.85555841571824" y2="443.85555841571824"
                    stroke="#8b97a8" stroke-width="3.9" stroke-linecap="round"/><line x1="292" y1="432.32"
                    x2="292" y2="452.08"
                    stroke="#8b97a8" stroke-width="3.9" stroke-linecap="round"/><line x1="286.1168715805279" y1="429.8831284194721"
                    x2="272.14444158428176" y2="443.85555841571824"
                    stroke="#8b97a8" stroke-width="3.9" stroke-linecap="round"/><line x1="283.68" y1="424"
                    x2="263.92" y2="424"
                    stroke="#8b97a8" stroke-width="3.9" stroke-linecap="round"/><line x1="286.1168715805279" y1="418.1168715805279"
                    x2="272.14444158428176" y2="404.14444158428176"
                    stroke="#8b97a8" stroke-width="3.9" stroke-linecap="round"/><line x1="292" y1="415.68"
                    x2="292" y2="395.92"
                    stroke="#8b97a8" stroke-width="3.9" stroke-linecap="round"/><line x1="297.8831284194721" y1="418.1168715805279"
                    x2="311.85555841571824" y2="404.14444158428176"
                    stroke="#8b97a8" stroke-width="3.9" stroke-linecap="round"/>
    <circle cx="292" cy="424" r="7.8" fill="#aab6c6"/>
  </g> 
  <g>
    <circle cx="596" cy="424" r="52" fill="#0a0d12"/>
    <circle cx="596" cy="424" r="50.44" fill="none" stroke="#1d242f" stroke-width="4.16"/>
    <circle cx="596" cy="424" r="31.2" fill="url(#rim)"/>
    <circle cx="596" cy="424" r="31.2" fill="none" stroke="#5c6878" stroke-width="1.5"/>
    <line x1="604.32" y1="424"
                    x2="624.08" y2="424"
                    stroke="#8b97a8" stroke-width="3.9" stroke-linecap="round"/><line x1="601.8831284194721" y1="429.8831284194721"
                    x2="615.8555584157183" y2="443.85555841571824"
                    stroke="#8b97a8" stroke-width="3.9" stroke-linecap="round"/><line x1="596" y1="432.32"
                    x2="596" y2="452.08"
                    stroke="#8b97a8" stroke-width="3.9" stroke-linecap="round"/><line x1="590.1168715805279" y1="429.8831284194721"
                    x2="576.1444415842817" y2="443.85555841571824"
                    stroke="#8b97a8" stroke-width="3.9" stroke-linecap="round"/><line x1="587.68" y1="424"
                    x2="567.92" y2="424"
                    stroke="#8b97a8" stroke-width="3.9" stroke-linecap="round"/><line x1="590.1168715805279" y1="418.1168715805279"
                    x2="576.1444415842817" y2="404.14444158428176"
                    stroke="#8b97a8" stroke-width="3.9" stroke-linecap="round"/><line x1="596" y1="415.68"
                    x2="596" y2="395.92"
                    stroke="#8b97a8" stroke-width="3.9" stroke-linecap="round"/><line x1="601.8831284194721" y1="418.1168715805279"
                    x2="615.8555584157183" y2="404.14444158428176"
                    stroke="#8b97a8" stroke-width="3.9" stroke-linecap="round"/>
    <circle cx="596" cy="424" r="7.8" fill="#aab6c6"/>
  </g>
  <text x="500" y="560" text-anchor="middle" font-family="system-ui,-apple-system,Segoe UI,sans-serif"
        font-size="20" letter-spacing="4" fill="#8fa0b8" opacity="0.6">VEHICLE</text>
</svg>
